<?xml version="1.0" encoding="UTF-8" standalone="no"?>
<svg
   xmlns:dc="http://purl.org/dc/elements/1.1/"
   xmlns:cc="http://creativecommons.org/ns#"
   xmlns:rdf="http://www.w3.org/1999/02/22-rdf-syntax-ns#"
   xmlns:svg="http://www.w3.org/2000/svg"
   xmlns="http://www.w3.org/2000/svg"
   xmlns:sodipodi="http://sodipodi.sourceforge.net/DTD/sodipodi-0.dtd"
   xmlns:inkscape="http://www.inkscape.org/namespaces/inkscape"
   height="100px"
   width="100px"
   fill="#000000"
   version="1.1"
   x="0px"
   y="0px"
   viewBox="0 0 50 50"
   style="enable-background:new 0 0 50 50;"
   xml:space="preserve"
   id="svg5429"
   sodipodi:docname="icon.svg"
   inkscape:version="0.92.1 r15371"><metadata
     id="metadata5435"><rdf:RDF><cc:Work
         rdf:about=""><dc:format>image/svg+xml</dc:format><dc:type
           rdf:resource="http://purl.org/dc/dcmitype/StillImage" /><dc:title></dc:title></cc:Work></rdf:RDF></metadata><defs
     id="defs5433" /><sodipodi:namedview
     pagecolor="#ffffff"
     bordercolor="#666666"
     borderopacity="1"
     objecttolerance="10"
     gridtolerance="10"
     guidetolerance="10"
     inkscape:pageopacity="0"
     inkscape:pageshadow="2"
     inkscape:window-width="1362"
     inkscape:window-height="675"
     id="namedview5431"
     showgrid="false"
     inkscape:zoom="3.6415999"
     inkscape:cx="41.980467"
     inkscape:cy="55.852975"
     inkscape:window-x="0"
     inkscape:window-y="72"
     inkscape:window-maximized="0"
     inkscape:current-layer="svg5429" /><rect
     style="fill:#ff0000;fill-opacity:1;fill-rule:nonzero;stroke:none;stroke-width:3.97532821;stroke-miterlimit:4;stroke-dasharray:none;stroke-opacity:1"
     id="rect5444"
     width="49.988724"
     height="49.988731"
     x="5.6421872e-09"
     y="7.1054274e-15" /><path
     inkscape:connector-curvature="0"
     id="path5417"
     d="M 14.4,1 H 4.4 C 2.8,1 1.5,2.3 1.5,3.9 v 10 c 0,0.6 0.4,1 1,1 0.6,0 1,-0.4 1,-1 V 3.9 C 3.5,3.4 3.9,3 4.4,3 h 10 c 0.6,0 1,-0.4 1,-1 0,-0.6 -0.5,-1 -1,-1 z"
     style="fill:#f6f6f6;fill-opacity:1" /><path
     inkscape:connector-curvature="0"
     id="path5419"
     d="m 1.5,46.1 c 0,1.6 1.3,2.9 2.9,2.9 h 10 c 0.6,0 1,-0.4 1,-1 0,-0.6 -0.4,-1 -1,-1 H 4.4 C 3.9,47 3.5,46.6 3.5,46.1 v -10 c 0,-0.6 -0.4,-1 -1,-1 -0.6,0 -1,0.4 -1,1 0,0 0,10 0,10 z"
     style="fill:#f6f6f6;fill-opacity:1" /><path
     inkscape:connector-curvature="0"
     id="path5421"
     d="m 48.5,36.1 c 0,-0.6 -0.4,-1 -1,-1 -0.6,0 -1,0.4 -1,1 v 10 c 0,0.5 -0.4,0.9 -0.9,0.9 h -10 c -0.6,0 -1,0.4 -1,1 0,0.6 0.4,1 1,1 h 10 c 1.6,0 2.9,-1.3 2.9,-2.9 z"
     style="fill:#f6f6f6;fill-opacity:1" /><path
     inkscape:connector-curvature="0"
     id="path5423"
     d="M 48.5,3.9 C 48.5,2.3 47.2,1 45.6,1 h -10 c -0.6,0 -1,0.4 -1,1 0,0.6 0.4,1 1,1 h 10 c 0.5,0 0.9,0.4 0.9,0.9 v 10 c 0,0.6 0.4,1 1,1 0.6,0 1,-0.4 1,-1 z"
     style="fill:#f6f6f6;fill-opacity:1" /><g
     id="g7013"
     transform="matrix(0.55239454,0,0,0.55239454,-1.4755548,11.40597)"><path
       id="path5686"
       d="m 71.492716,13.290483 a 0.78125,0.78125 0 0 0 -0.390625,1.039063 2.421875,2.421875 0 0 1 0.109375,0.273437 0.78192355,0.78192355 0 1 0 1.484375,-0.492187 4.0234375,4.0234375 0 0 0 -0.167968,-0.449219 0.78125,0.78125 0 0 0 -1.035157,-0.371094 z"
       inkscape:connector-curvature="0"
       style="stroke-width:0.390625" /><path
       id="path5688"
       d="m 72.918498,24.888139 a 0.78125,0.78125 0 0 0 -1.5625,0 v 0.390625 a 0.78125,0.78125 0 0 0 1.5625,0 z"
       inkscape:connector-curvature="0"
       style="stroke-width:0.390625" /><path
       id="path5690"
       d="m 72.918498,22.153764 a 0.78125,0.78125 0 0 0 -1.5625,0 v 0.390625 a 0.78125,0.78125 0 0 0 1.5625,0 z"
       inkscape:connector-curvature="0"
       style="stroke-width:0.390625" /><path
       id="path5692"
       d="m 72.918498,27.622514 a 0.78125,0.78125 0 0 0 -1.5625,0 v 0.390625 a 0.78125,0.78125 0 0 0 1.5625,0 z"
       inkscape:connector-curvature="0"
       style="stroke-width:0.390625" /><path
       id="path5694"
       d="m 72.918498,19.419389 a 0.78125,0.78125 0 0 0 -1.5625,0 v 0.390625 a 0.78125,0.78125 0 0 0 1.5625,0 z"
       inkscape:connector-curvature="0"
       style="stroke-width:0.390625" /><path
       id="path5696"
       d="m 72.918498,16.685014 a 0.78125,0.78125 0 0 0 -1.5625,0 v 0.390625 a 0.78125,0.78125 0 0 0 1.5625,0 z"
       inkscape:connector-curvature="0"
       style="stroke-width:0.390625" /><path
       id="path5698"
       d="m 70.355998,33.192827 h 0.121093 a 2.4882813,2.4882813 0 0 0 0.390625,-0.03125 0.7815455,0.7815455 0 0 0 -0.25,-1.542969 h -0.140625 -0.121093 a 0.78125,0.78125 0 0 0 0,1.5625 z"
       inkscape:connector-curvature="0"
       style="stroke-width:0.390625" /><path
       id="path5700"
       d="m 67.547404,11.317827 a 7.875,7.875 0 0 1 -1.171875,0.992188 0.78125,0.78125 0 0 0 0.730469,0.570312 h 0.390625 a 0.7816625,0.7816625 0 0 0 0.05078,-1.5625 z"
       inkscape:connector-curvature="0"
       style="stroke-width:0.390625" /><path
       id="path5702"
       d="m 69.590373,12.997515 a 2.5195313,2.5195313 0 0 1 0.277343,0.105468 0.78154535,0.78154535 0 0 0 0.640625,-1.425781 4.171875,4.171875 0 0 0 -0.449218,-0.171875 0.78204085,0.78204085 0 0 0 -0.46875,1.492188 z"
       inkscape:connector-curvature="0"
       style="stroke-width:0.390625" /><path
       id="path5704"
       d="m 72.137248,31.528764 a 0.78125,0.78125 0 0 0 0.78125,-0.78125 v -0.390625 a 0.78125,0.78125 0 0 0 -1.5625,0 v 0.390625 a 0.78125,0.78125 0 0 0 0.78125,0.78125 z"
       inkscape:connector-curvature="0"
       style="stroke-width:0.390625" /><path
       id="path5706"
       d="m 56.773966,7.6967328 a 0.78125,0.78125 0 0 0 -0.328125,1.0546875 q 0.101563,0.1914065 0.214844,0.390625 A 0.78125,0.78125 0 0 0 57.98881,8.3217328 q -0.08594,-0.1367185 -0.160156,-0.28125 a 0.78125,0.78125 0 0 0 -1.054688,-0.34375 z"
       inkscape:connector-curvature="0"
       style="stroke-width:0.390625" /><path
       id="path5708"
       d="M 57.512248,2.5990768 A 0.78125,0.78125 0 0 0 56.45756,2.9232956 q -0.101562,0.1914062 -0.1875,0.390625 a 0.78125,0.78125 0 1 0 1.414063,0.6328124 q 0.06641,-0.1484375 0.140625,-0.2890625 a 0.78125,0.78125 0 0 0 -0.3125,-1.0585937 z"
       inkscape:connector-curvature="0"
       style="stroke-width:0.390625" /><path
       id="path5710"
       d="m 59.070841,2.1732956 q 0.125,-0.1015625 0.261719,-0.1914063 A 0.78125,0.78125 0 0 0 58.465373,0.69282675 q -0.179688,0.1210937 -0.347657,0.2578125 a 0.78125,0.78125 0 1 0 0.972657,1.22265635 z"
       inkscape:connector-curvature="0"
       style="stroke-width:0.390625" /><path
       id="path5712"
       d="m 55.730998,5.8490768 c 0,0.1445315 0,0.2890625 0,0.4296875 a 0.78125,0.78125 0 0 0 0.78125,0.7421875 h 0.05469 a 0.78125,0.78125 0 0 0 0.72656,-0.8476565 c 0,-0.1054685 0,-0.2148435 0,-0.3242185 v -0.023435 a 0.78125,0.78125 0 0 0 -0.78125,-0.7812525 0.78125,0.78125 0 0 0 -0.78125,0.8046875 z"
       inkscape:connector-curvature="0"
       style="stroke-width:0.390625" /><path
       id="path5714"
       d="m 61.246623,-0.35795445 q -0.214844,0.027344 -0.4375,0.066406 a 0.78440771,0.78440771 0 0 0 0.140625,1.56250005 0.78125,0.78125 0 0 0 0.144531,0 l 0.320312,-0.046875 a 0.7866246,0.7866246 0 1 0 -0.183593,-1.56250005 z"
       inkscape:connector-curvature="0"
       style="stroke-width:0.390625" /><path
       id="path5716"
       d="m 64.211466,0.00923305 q -0.199218,-0.074219 -0.390625,-0.140625 A 0.78125,0.78125 0 0 0 63.36381,1.3607955 l 0.308594,0.1054688 a 0.78134765,0.78134765 0 0 0 0.554687,-1.46093755 z"
       inkscape:connector-curvature="0"
       style="stroke-width:0.390625" /><path
       id="path5718"
       d="m 61.410685,10.501421 a 0.7868549,0.7868549 0 1 0 -0.1875,1.5625 q 0.210938,0.02734 0.425781,0.03516 h 0.04297 a 0.78154537,0.78154537 0 0 0 0.04297,-1.5625 z"
       inkscape:connector-curvature="0"
       style="stroke-width:0.390625" /><path
       id="path5720"
       d="m 67.938029,3.9506393 a 0.78125,0.78125 0 0 0 -1.488281,0.4726562 q 0.04687,0.1523438 0.08594,0.3125003 a 0.78125,0.78125 0 0 0 0.75781,0.597656 0.78125,0.78125 0 0 0 0.1875,-0.023437 0.78125,0.78125 0 0 0 0.574218,-0.9453125 C 68.02006,4.2240768 67.980998,4.087358 67.938029,3.9506393 Z"
       inkscape:connector-curvature="0"
       style="stroke-width:0.390625" /><path
       id="path5722"
       d="m 65.691935,8.7123578 q -0.09766,0.1289065 -0.207031,0.25 a 0.78309376,0.78309376 0 0 0 1.171875,1.0390632 Q 66.80131,9.8412648 66.930216,9.6693898 a 0.78125,0.78125 0 1 0 -1.234375,-0.957032 z"
       inkscape:connector-curvature="0"
       style="stroke-width:0.390625" /><path
       id="path5724"
       d="m 66.371623,1.4037643 a 0.78125,0.78125 0 0 0 -1.097657,1.109375 q 0.117188,0.1132813 0.222657,0.2382813 a 0.78179916,0.78179916 0 1 0 1.171875,-1.0351563 q -0.140625,-0.1640625 -0.296875,-0.3125 z"
       inkscape:connector-curvature="0"
       style="stroke-width:0.390625" /><path
       id="path5726"
       d="m 63.934123,10.110796 c -0.09766,0.04687 -0.199219,0.08594 -0.300782,0.125 a 0.78751896,0.78751896 0 1 0 0.558594,1.472656 q 0.203125,-0.07813 0.390625,-0.167969 a 0.78493275,0.78493275 0 0 0 -0.648437,-1.429687 z"
       inkscape:connector-curvature="0"
       style="stroke-width:0.390625" /><path
       id="path5728"
       d="M 59.859904,10.95064 A 0.78125,0.78125 0 0 0 59.590373,9.8803268 q -0.140625,-0.08203 -0.273438,-0.175781 a 0.78125,0.78125 0 0 0 -0.886719,1.2851562 q 0.175782,0.121094 0.363282,0.230469 A 0.78125,0.78125 0 0 0 59.86381,10.95064 Z"
       inkscape:connector-curvature="0"
       style="stroke-width:0.390625" /><path
       id="path5730"
       d="m 67.289591,7.9506393 a 0.78125,0.78125 0 0 0 0.757813,-0.59375 q 0.05078,-0.2070315 0.08984,-0.421875 a 0.78125,0.78125 0 0 0 -1.539063,-0.269531 c 0,0.1054685 -0.03907,0.2109375 -0.06641,0.316406 a 0.78125,0.78125 0 0 0 0.757812,0.96875 z"
       inkscape:connector-curvature="0"
       style="stroke-width:0.390625" /><path
       id="path5732"
       d="m 62.762248,37.489702 a 0.78125,0.78125 0 0 0 -1.5625,0 v 0.390625 a 0.78125,0.78125 0 0 0 1.5625,0 z"
       inkscape:connector-curvature="0"
       style="stroke-width:0.390625" /><path
       id="path5734"
       d="m 62.762248,40.224077 a 0.78125,0.78125 0 0 0 -1.5625,0 v 0.390625 a 0.78125,0.78125 0 0 0 1.5625,0 z"
       inkscape:connector-curvature="0"
       style="stroke-width:0.390625" /><path
       id="path5736"
       d="m 62.762248,42.958452 a 0.78125,0.78125 0 0 0 -1.5625,0 v 0.390625 a 0.78125,0.78125 0 0 0 1.5625,0 z"
       inkscape:connector-curvature="0"
       style="stroke-width:0.390625" /><path
       id="path5738"
       d="m 62.762248,34.755327 a 0.78125,0.78125 0 0 0 -1.5625,0 v 0.390625 a 0.78125,0.78125 0 0 0 1.5625,0 z"
       inkscape:connector-curvature="0"
       style="stroke-width:0.390625" /><path
       id="path5740"
       d="m 62.762248,46.083452 v -0.390625 a 0.78125,0.78125 0 0 0 -1.5625,0 v 0.390625 a 0.78125,0.78125 0 0 0 1.5625,0 z"
       inkscape:connector-curvature="0"
       style="stroke-width:0.390625" /><path
       id="path5742"
       d="m 23.723186,31.825639 a 0.78125,0.78125 0 0 0 0.78125,-0.914062 0.84765625,0.84765625 0 0 1 0,-0.148438 v -0.105468 a 0.78125,0.78125 0 0 0 -1.5625,0 v 0.105468 a 2.421875,2.421875 0 0 0 0.03516,0.417969 0.78125,0.78125 0 0 0 0.746094,0.644531 z"
       inkscape:connector-curvature="0"
       style="stroke-width:0.390625" /><path
       id="path5744"
       d="m 23.699748,29.095171 a 0.78125,0.78125 0 0 0 0.78125,-0.78125 v -0.390625 a 0.78125,0.78125 0 0 0 -1.5625,0 v 0.390625 a 0.78125,0.78125 0 0 0 0.78125,0.78125 z"
       inkscape:connector-curvature="0"
       style="stroke-width:0.390625" /><path
       id="path5746"
       d="m 23.699748,26.360796 a 0.78125,0.78125 0 0 0 0.78125,-0.78125 v -0.390625 a 0.78125,0.78125 0 0 0 -1.5625,0 v 0.390625 a 0.78125,0.78125 0 0 0 0.78125,0.78125 z"
       inkscape:connector-curvature="0"
       style="stroke-width:0.390625" /><path
       id="path5748"
       d="m 24.164592,13.540483 a 0.78125,0.78125 0 0 0 -1,0.46875 3.9921875,3.9921875 0 0 0 -0.136719,0.464844 0.78173843,0.78173843 0 0 0 1.523438,0.351563 2.4257813,2.4257813 0 0 1 0.08203,-0.285157 0.78125,0.78125 0 0 0 -0.46875,-1 z"
       inkscape:connector-curvature="0"
       style="stroke-width:0.390625" /><path
       id="path5750"
       d="m 23.699748,20.892045 a 0.78125,0.78125 0 0 0 0.78125,-0.78125 V 19.72017 a 0.78125,0.78125 0 0 0 -1.5625,0 v 0.390625 a 0.78125,0.78125 0 0 0 0.78125,0.78125 z"
       inkscape:connector-curvature="0"
       style="stroke-width:0.390625" /><path
       id="path5752"
       d="m 25.383342,13.306108 a 0.78125,0.78125 0 0 0 0.390625,-0.101562 2.5742188,2.5742188 0 0 1 0.269531,-0.128906 0.78125,0.78125 0 0 0 -0.601562,-1.441407 4.0585937,4.0585937 0 0 0 -0.433594,0.210938 0.78125,0.78125 0 0 0 0.390625,1.460937 z"
       inkscape:connector-curvature="0"
       style="stroke-width:0.390625" /><path
       id="path5754"
       d="m 23.699748,23.62642 a 0.78125,0.78125 0 0 0 0.78125,-0.78125 v -0.390625 a 0.78125,0.78125 0 0 0 -1.5625,0 v 0.390625 a 0.78125,0.78125 0 0 0 0.78125,0.78125 z"
       inkscape:connector-curvature="0"
       style="stroke-width:0.390625" /><path
       id="path5756"
       d="m 23.699748,18.15767 a 0.78125,0.78125 0 0 0 0.78125,-0.78125 v -0.390625 a 0.78125,0.78125 0 0 0 -1.5625,0 v 0.390625 a 0.78125,0.78125 0 0 0 0.78125,0.78125 z"
       inkscape:connector-curvature="0"
       style="stroke-width:0.390625" /><path
       id="path5758"
       d="m 25.387248,33.192827 h 0.390625 a 0.78125,0.78125 0 1 0 0,-1.5625 h -0.390625 a 0.78125,0.78125 0 0 0 0,1.5625 z"
       inkscape:connector-curvature="0"
       style="stroke-width:0.390625" /><path
       id="path5760"
       d="m 28.043498,12.880327 h 0.390625 a 0.78125,0.78125 0 0 0 0.78125,-0.78125 7.886719,7.886719 0 0 1 -0.925781,-0.78125 h -0.242188 a 0.78125,0.78125 0 1 0 0,1.5625 z"
       inkscape:connector-curvature="0"
       style="stroke-width:0.390625" /><path
       id="path5762"
       d="m 27.605998,5.8490768 c 0,0.1445315 0,0.2890625 0,0.4296875 a 0.78125,0.78125 0 0 0 0.78125,0.7421875 h 0.05469 a 0.78125,0.78125 0 0 0 0.726563,-0.8476565 c 0,-0.1054685 0,-0.2148435 0,-0.3242185 v -0.023435 a 0.78125,0.78125 0 0 0 -0.78125,-0.7812525 0.78125,0.78125 0 0 0 -0.78125,0.8046875 z"
       inkscape:connector-curvature="0"
       style="stroke-width:0.390625" /><path
       id="path5764"
       d="m 30.461467,2.3334518 a 0.78125,0.78125 0 0 0 0.484375,-0.1679687 q 0.125,-0.1015625 0.261719,-0.1914063 A 0.78125,0.78125 0 0 0 30.340373,0.69282675 q -0.179687,0.1210937 -0.347656,0.2578125 a 0.78125,0.78125 0 0 0 0.46875,1.38281255 z"
       inkscape:connector-curvature="0"
       style="stroke-width:0.390625" /><path
       id="path5766"
       d="m 33.098186,12.052202 q 0.210937,0.02735 0.425781,0.03515 h 0.04297 a 0.78154537,0.78154537 0 0 0 0.04297,-1.5625 l -0.324219,-0.02735 a 0.7868549,0.7868549 0 1 0 -0.1875,1.5625 z"
       inkscape:connector-curvature="0"
       style="stroke-width:0.390625" /><path
       id="path5768"
       d="m 30.301311,10.989702 q 0.175781,0.121094 0.363281,0.230469 a 0.78125,0.78125 0 1 0 0.78125,-1.3437502 q -0.140625,-0.082031 -0.273438,-0.175781 a 0.78125,0.78125 0 0 0 -0.886718,1.2851562 z"
       inkscape:connector-curvature="0"
       style="stroke-width:0.390625" /><path
       id="path5770"
       d="m 28.535686,9.1264203 a 0.78125,0.78125 0 0 0 1.328125,-0.8203125 q -0.08594,-0.1367185 -0.160156,-0.28125 a 0.78125,0.78125 0 0 0 -1.382813,0.7265625 q 0.101563,0.1953125 0.214844,0.375 z"
       inkscape:connector-curvature="0"
       style="stroke-width:0.390625" /><path
       id="path5772"
       d="m 32.984904,1.243608 0.320313,-0.046875 a 0.7866246,0.7866246 0 1 0 -0.183594,-1.56249995 q -0.214844,0.035156 -0.4375,0.074219 a 0.78440771,0.78440771 0 0 0 0.140625,1.56250005 0.78125,0.78125 0 0 0 0.160156,-0.027344 z"
       inkscape:connector-curvature="0"
       style="stroke-width:0.390625" /><path
       id="path5774"
       d="m 34.707561,0.38032675 a 0.78125,0.78125 0 0 0 0.519531,0.97656255 l 0.308594,0.1054687 a 0.78134765,0.78134765 0 0 0 0.554687,-1.46093745 q -0.199219,-0.0742188 -0.390625,-0.140625 a 0.78125,0.78125 0 0 0 -0.992187,0.5195312 z"
       inkscape:connector-curvature="0"
       style="stroke-width:0.390625" /><path
       id="path5776"
       d="m 37.371623,2.7514206 a 0.78179916,0.78179916 0 1 0 1.171875,-1.0351563 q -0.140625,-0.1601563 -0.292969,-0.3125 a 0.78125,0.78125 0 0 0 -1.097656,1.109375 q 0.113281,0.1132813 0.21875,0.2382813 z"
       inkscape:connector-curvature="0"
       style="stroke-width:0.390625" /><path
       id="path5778"
       d="m 29.387248,2.5990768 a 0.78125,0.78125 0 0 0 -1.054687,0.3242188 q -0.101563,0.1914062 -0.1875,0.390625 a 0.78125,0.78125 0 1 0 1.414062,0.6328124 q 0.06641,-0.1484375 0.140625,-0.2890625 a 0.78125,0.78125 0 0 0 -0.3125,-1.0585937 z"
       inkscape:connector-curvature="0"
       style="stroke-width:0.390625" /><path
       id="path5780"
       d="m 37.566936,8.7123578 q -0.09766,0.1289065 -0.207032,0.25 a 0.78309376,0.78309376 0 0 0 1.171875,1.0390632 q 0.144532,-0.1601562 0.273438,-0.3320312 a 0.78125,0.78125 0 1 0 -1.234375,-0.957032 z"
       inkscape:connector-curvature="0"
       style="stroke-width:0.390625" /><path
       id="path5782"
       d="m 39.164591,7.9506393 a 0.78125,0.78125 0 0 0 0.757813,-0.59375 q 0.05078,-0.2070315 0.08984,-0.421875 a 0.78125,0.78125 0 0 0 -1.539062,-0.269531 c 0,0.1054685 -0.03907,0.2109375 -0.06641,0.316406 a 0.78125,0.78125 0 0 0 0.757812,0.96875 z"
       inkscape:connector-curvature="0"
       style="stroke-width:0.390625" /><path
       id="path5784"
       d="m 36.848186,10.493608 a 0.78125,0.78125 0 0 0 -1.035157,-0.390625 c -0.09766,0.04687 -0.199218,0.08594 -0.300781,0.125 a 0.79048517,0.79048517 0 1 0 0.554688,1.480469 q 0.203125,-0.07813 0.390625,-0.167969 a 0.78125,0.78125 0 0 0 0.390625,-1.046875 z"
       inkscape:connector-curvature="0"
       style="stroke-width:0.390625" /><path
       id="path5786"
       d="m 39.168498,5.3334518 a 0.78125,0.78125 0 0 0 0.1875,-0.023435 0.78125,0.78125 0 0 0 0.574218,-0.9453125 C 39.89506,4.2240768 39.855998,4.087358 39.813029,3.9506393 a 0.78125,0.78125 0 0 0 -1.488281,0.4726562 q 0.04687,0.1523438 0.08594,0.3124998 a 0.78125,0.78125 0 0 0 0.75781,0.5976565 z"
       inkscape:connector-curvature="0"
       style="stroke-width:0.390625" /><path
       id="path5788"
       d="m 34.637248,42.958452 a 0.78125,0.78125 0 0 0 -1.5625,0 v 0.390625 a 0.78125,0.78125 0 0 0 1.5625,0 z"
       inkscape:connector-curvature="0"
       style="stroke-width:0.390625" /><path
       id="path5790"
       d="m 34.637248,34.755327 a 0.78125,0.78125 0 0 0 -1.5625,0 v 0.390625 a 0.78125,0.78125 0 0 0 1.5625,0 z"
       inkscape:connector-curvature="0"
       style="stroke-width:0.390625" /><path
       id="path5792"
       d="m 34.637248,46.083452 v -0.390625 a 0.78125,0.78125 0 0 0 -1.5625,0 v 0.390625 a 0.78125,0.78125 0 0 0 1.5625,0 z"
       inkscape:connector-curvature="0"
       style="stroke-width:0.390625" /><path
       id="path5794"
       d="m 34.637248,37.489702 a 0.78125,0.78125 0 0 0 -1.5625,0 v 0.390625 a 0.78125,0.78125 0 0 0 1.5625,0 z"
       inkscape:connector-curvature="0"
       style="stroke-width:0.390625" /><path
       id="path5796"
       d="m 34.637248,40.224077 a 0.78125,0.78125 0 0 0 -1.5625,0 v 0.390625 a 0.78125,0.78125 0 0 0 1.5625,0 z"
       inkscape:connector-curvature="0"
       style="stroke-width:0.390625" /><path
       id="path5798"
       d="m 66.305216,49.540483 a 0.78125,0.78125 0 0 0 0.21875,-0.03125 2.2890625,2.2890625 0 0 0 0.539063,-0.238281 0.78125,0.78125 0 0 0 -0.808594,-1.335938 0.72265625,0.72265625 0 0 1 -0.171875,0.07422 0.78125,0.78125 0 0 0 0.21875,1.53125 z"
       inkscape:connector-curvature="0"
       style="stroke-width:0.390625" /><path
       id="path5800"
       d="m 58.109904,49.599077 h 0.390625 a 0.78125,0.78125 0 0 0 0,-1.5625 h -0.390625 a 0.78125,0.78125 0 0 0 0,1.5625 z"
       inkscape:connector-curvature="0"
       style="stroke-width:0.390625" /><path
       id="path5802"
       d="m 60.844279,49.599077 h 0.390625 a 0.78125,0.78125 0 0 0 0,-1.5625 h -0.390625 a 0.78125,0.78125 0 0 0 0,1.5625 z"
       inkscape:connector-curvature="0"
       style="stroke-width:0.390625" /><path
       id="path5804"
       d="m 63.578654,48.036577 a 0.78125,0.78125 0 1 0 0,1.5625 h 0.390625 a 0.78125,0.78125 0 1 0 0,-1.5625 z"
       inkscape:connector-curvature="0"
       style="stroke-width:0.390625" /><path
       id="path5806"
       d="m 57.293498,47.286577 a 0.97265625,0.97265625 0 0 1 0,-0.125 v -0.171875 a 0.78125,0.78125 0 0 0 -1.5625,0 v 0.171875 a 2.5859375,2.5859375 0 0 0 0,0.316406 0.78125,0.78125 0 0 0 0.78125,0.683594 h 0.09766 a 0.78125,0.78125 0 0 0 0.68359,-0.875 z"
       inkscape:connector-curvature="0"
       style="stroke-width:0.390625" /><path
       id="path5808"
       d="m 56.512248,37.227983 a 0.78125,0.78125 0 0 0 0.78125,-0.78125 v -0.390625 a 0.78125,0.78125 0 0 0 -1.5625,0 v 0.390625 a 0.78125,0.78125 0 0 0 0.78125,0.78125 z"
       inkscape:connector-curvature="0"
       style="stroke-width:0.390625" /><path
       id="path5810"
       d="m 55.730998,44.649858 a 0.78125,0.78125 0 0 0 1.5625,0 v -0.390625 a 0.78125,0.78125 0 0 0 -1.5625,0 z"
       inkscape:connector-curvature="0"
       style="stroke-width:0.390625" /><path
       id="path5812"
       d="m 55.730998,41.915483 a 0.78125,0.78125 0 0 0 1.5625,0 v -0.390625 a 0.78125,0.78125 0 0 0 -1.5625,0 z"
       inkscape:connector-curvature="0"
       style="stroke-width:0.390625" /><path
       id="path5814"
       d="m 55.730998,39.181108 a 0.78125,0.78125 0 0 0 1.5625,0 v -0.390625 a 0.78125,0.78125 0 0 0 -1.5625,0 z"
       inkscape:connector-curvature="0"
       style="stroke-width:0.390625" /><path
       id="path5816"
       d="m 68.230998,35.204545 a 0.78125,0.78125 0 0 0 -1.5625,0 v 0.390625 a 0.78125,0.78125 0 0 0 1.5625,0 z"
       inkscape:connector-curvature="0"
       style="stroke-width:0.390625" /><path
       id="path5818"
       d="m 68.230998,29.735796 a 0.78125,0.78125 0 0 0 -1.5625,0 v 0.390625 a 0.78125,0.78125 0 0 0 1.5625,0 z"
       inkscape:connector-curvature="0"
       style="stroke-width:0.390625" /><path
       id="path5820"
       d="m 68.230998,32.47017 a 0.78125,0.78125 0 0 0 -1.5625,0 v 0.390625 a 0.78125,0.78125 0 0 0 1.5625,0 z"
       inkscape:connector-curvature="0"
       style="stroke-width:0.390625" /><path
       id="path5822"
       d="m 68.230998,27.001421 a 0.78125,0.78125 0 0 0 -1.5625,0 v 0.390625 a 0.78125,0.78125 0 0 0 1.5625,0 z"
       inkscape:connector-curvature="0"
       style="stroke-width:0.390625" /><path
       id="path5824"
       d="m 68.230998,37.93892 a 0.78125,0.78125 0 0 0 -1.5625,0 v 0.390625 a 0.78125,0.78125 0 0 0 1.5625,0 z"
       inkscape:connector-curvature="0"
       style="stroke-width:0.390625" /><path
       id="path5826"
       d="m 68.230998,43.40767 a 0.78125,0.78125 0 0 0 -1.5625,0 v 0.390625 a 0.78125,0.78125 0 0 0 1.5625,0 z"
       inkscape:connector-curvature="0"
       style="stroke-width:0.390625" /><path
       id="path5828"
       d="m 68.230998,40.673295 a 0.78125,0.78125 0 0 0 -1.5625,0 v 0.390625 a 0.78125,0.78125 0 0 0 1.5625,0 z"
       inkscape:connector-curvature="0"
       style="stroke-width:0.390625" /><path
       id="path5830"
       d="m 68.230998,46.53267 v -0.390625 a 0.78125,0.78125 0 0 0 -1.5625,0 v 0.390625 a 0.78125,0.78125 0 0 0 1.5625,0 z"
       inkscape:connector-curvature="0"
       style="stroke-width:0.390625" /><path
       id="path5832"
       d="m 29.168498,27.852983 a 0.78125,0.78125 0 0 0 -1.5625,0 v 0.390625 a 0.78125,0.78125 0 0 0 1.5625,0 z"
       inkscape:connector-curvature="0"
       style="stroke-width:0.390625" /><path
       id="path5834"
       d="m 29.168498,30.587358 a 0.78125,0.78125 0 0 0 -1.5625,0 v 0.390625 a 0.78125,0.78125 0 0 0 1.5625,0 z"
       inkscape:connector-curvature="0"
       style="stroke-width:0.390625" /><path
       id="path5836"
       d="m 29.168498,33.321733 a 0.78125,0.78125 0 0 0 -1.5625,0 v 0.390625 a 0.78125,0.78125 0 0 0 1.5625,0 z"
       inkscape:connector-curvature="0"
       style="stroke-width:0.390625" /><path
       id="path5838"
       d="m 40.105998,43.40767 a 0.78125,0.78125 0 0 0 -1.5625,0 v 0.390625 a 0.78125,0.78125 0 0 0 1.5625,0 z"
       inkscape:connector-curvature="0"
       style="stroke-width:0.390625" /><path
       id="path5840"
       d="m 29.168498,36.056108 a 0.78125,0.78125 0 0 0 -1.5625,0 v 0.390625 a 0.78125,0.78125 0 0 0 1.5625,0 z"
       inkscape:connector-curvature="0"
       style="stroke-width:0.390625" /><path
       id="path5842"
       d="m 40.105998,35.204545 a 0.78125,0.78125 0 0 0 -0.144532,-0.449218 h -0.539062 a 4.0117187,4.0117187 0 0 1 -0.679687,-0.0625 0.78125,0.78125 0 0 0 -0.195313,0.511718 v 0.390625 a 0.78125,0.78125 0 0 0 1.5625,0 z"
       inkscape:connector-curvature="0"
       style="stroke-width:0.390625" /><path
       id="path5844"
       d="m 40.105998,40.673295 a 0.78125,0.78125 0 0 0 -1.5625,0 v 0.390625 a 0.78125,0.78125 0 0 0 1.5625,0 z"
       inkscape:connector-curvature="0"
       style="stroke-width:0.390625" /><path
       id="path5846"
       d="m 40.105998,37.93892 a 0.78125,0.78125 0 0 0 -1.5625,0 v 0.390625 a 0.78125,0.78125 0 0 0 1.5625,0 z"
       inkscape:connector-curvature="0"
       style="stroke-width:0.390625" /><path
       id="path5848"
       d="m 40.105998,46.142045 a 0.78125,0.78125 0 0 0 -1.5625,0 v 0.390625 a 0.78125,0.78125 0 0 0 1.5625,0 z"
       inkscape:connector-curvature="0"
       style="stroke-width:0.390625" /><path
       id="path5850"
       d="m 29.984905,48.036577 a 0.78125,0.78125 0 0 0 0,1.5625 h 0.390625 a 0.78125,0.78125 0 1 0 0,-1.5625 z"
       inkscape:connector-curvature="0"
       style="stroke-width:0.390625" /><path
       id="path5852"
       d="m 32.719279,49.599077 h 0.390625 a 0.78125,0.78125 0 1 0 0,-1.5625 h -0.390625 a 0.78125,0.78125 0 0 0 0,1.5625 z"
       inkscape:connector-curvature="0"
       style="stroke-width:0.390625" /><path
       id="path5854"
       d="m 35.453654,49.599077 h 0.390625 a 0.78125,0.78125 0 0 0 0,-1.5625 h -0.390625 a 0.78125,0.78125 0 0 0 0,1.5625 z"
       inkscape:connector-curvature="0"
       style="stroke-width:0.390625" /><path
       id="path5856"
       d="m 39.203654,48.196733 a 0.78125,0.78125 0 0 0 -1.074218,-0.261719 0.72265625,0.72265625 0 0 1 -0.171875,0.07422 0.78179916,0.78179916 0 1 0 0.441406,1.5 2.2890625,2.2890625 0 0 0 0.539062,-0.238281 0.78125,0.78125 0 0 0 0.265625,-1.07422 z"
       inkscape:connector-curvature="0"
       style="stroke-width:0.390625" /><path
       id="path5858"
       d="m 29.168498,41.524858 a 0.78125,0.78125 0 0 0 -1.5625,0 v 0.390625 a 0.78125,0.78125 0 0 0 1.5625,0 z"
       inkscape:connector-curvature="0"
       style="stroke-width:0.390625" /><path
       id="path5860"
       d="m 29.168498,47.286577 a 0.97265625,0.97265625 0 0 1 0,-0.125 v -0.171875 a 0.78125,0.78125 0 0 0 -1.5625,0 v 0.171875 a 2.5859375,2.5859375 0 0 0 0,0.316406 0.78125,0.78125 0 0 0 0.78125,0.683594 h 0.09766 a 0.78125,0.78125 0 0 0 0.683593,-0.875 z"
       inkscape:connector-curvature="0"
       style="stroke-width:0.390625" /><path
       id="path5862"
       d="m 29.168498,38.790483 a 0.78125,0.78125 0 0 0 -1.5625,0 v 0.390625 a 0.78125,0.78125 0 0 0 1.5625,0 z"
       inkscape:connector-curvature="0"
       style="stroke-width:0.390625" /><path
       id="path5864"
       d="m 28.387248,43.477983 a 0.78125,0.78125 0 0 0 -0.78125,0.78125 v 0.390625 a 0.78125,0.78125 0 0 0 1.5625,0 v -0.390625 a 0.78125,0.78125 0 0 0 -0.78125,-0.78125 z"
       inkscape:connector-curvature="0"
       style="stroke-width:0.390625" /><path
       id="path5866"
       d="M 58.855998,30.763139 V 15.392046 A 4.0898437,4.0898437 0 0 0 54.758342,11.317827 H 53.48881 a 7.847656,7.847656 0 0 1 -2.1875,1.5625 h 3.457032 a 2.5273438,2.5273438 0 0 1 2.535156,2.511719 v 15.371093 a 0.87109375,0.87109375 0 0 1 -0.878907,0.867188 h -2.246093 v -4.6875 a 0.78125,0.78125 0 0 0 -1.5625,0 v 20.21875 a 0.83203125,0.83203125 0 0 1 -0.78125,0.875 h -3.125 v -13.28125 a 0.78125,0.78125 0 0 0 -1.5625,0 v 13.28125 h -3.125 a 0.83203125,0.83203125 0 0 1 -0.78125,-0.875 v -20.21875 a 0.78125,0.78125 0 0 0 -1.5625,0 v 4.6875 H 39.422404 A 0.87109375,0.87109375 0 0 1 38.543498,30.763139 V 15.392046 a 2.5273438,2.5273438 0 0 1 2.535156,-2.511719 h 3.457031 a 7.847656,7.847656 0 0 1 -2.1875,-1.5625 h -1.269531 a 4.0898437,4.0898437 0 0 0 -4.097656,4.074219 v 15.371093 a 2.4375,2.4375 0 0 0 2.441406,2.429688 h 2.246094 v 13.96875 a 2.390625,2.390625 0 0 0 2.34375,2.4375 h 7.8125 a 2.390625,2.390625 0 0 0 2.34375,-2.4375 v -13.96875 h 2.246093 a 2.4375,2.4375 0 0 0 2.441407,-2.429688 z"
       inkscape:connector-curvature="0"
       style="stroke-width:0.390625" /><path
       id="path5868"
       d="m 54.168498,5.8490768 a 6.25,6.25 0 1 0 -6.25,6.2500002 6.25,6.25 0 0 0 6.25,-6.2500002 z m -6.25,4.6875002 a 4.6875,4.6875 0 1 1 4.6875,-4.6875002 4.6875,4.6875 0 0 1 -4.6875,4.6875002 z"
       inkscape:connector-curvature="0"
       style="stroke-width:0.390625" /><path
       id="path5870"
       d="m 32.293498,23.817827 a 0.78125,0.78125 0 0 0 0.550781,-1.332032 l -1.398437,-1.402343 1.402344,-1.402344 a 0.78168463,0.78168463 0 0 0 -1.105469,-1.105469 l -1.402344,1.402344 -1.402343,-1.402344 a 0.78168463,0.78168463 0 0 0 -1.105469,1.105469 l 1.402344,1.402344 -1.402344,1.402343 a 0.78168465,0.78168465 0 1 0 1.105469,1.105469 l 1.402343,-1.402344 1.402344,1.402344 a 0.78125,0.78125 0 0 0 0.550781,0.226563 z"
       inkscape:connector-curvature="0"
       style="stroke-width:0.390625" /><path
       id="path5872"
       d="m 66.508341,23.587358 a 0.78168463,0.78168463 0 1 0 1.105469,-1.105469 l -1.402344,-1.398437 1.402344,-1.402344 a 0.78168463,0.78168463 0 1 0 -1.105469,-1.105469 l -1.402343,1.402344 -1.402344,-1.402344 a 0.78168463,0.78168463 0 0 0 -1.105469,1.105469 l 1.402344,1.402344 -1.402344,1.402343 a 0.78168463,0.78168463 0 1 0 1.105469,1.105469 l 1.402344,-1.402344 z"
       inkscape:connector-curvature="0"
       style="stroke-width:0.390625" /><path
       id="path5874"
       d="m 49.871623,19.431108 -2.839844,1.632812 -0.867187,-1.007812 a 0.78125,0.78125 0 1 0 -1.171875,1.019531 l 1.289062,1.5 a 0.78125,0.78125 0 0 0 0.980469,0.167969 l 3.398437,-1.953125 a 0.78224801,0.78224801 0 0 0 -0.78125,-1.355469 z"
       inkscape:connector-curvature="0"
       style="stroke-width:0.390625" /></g></svg>